#!OML:ASF X:\für Bonn\!DataBase\2005_08_11_Bastian_Final\c3d\Bastian.ASF
:FULLY-SPECIFIED
:DEGREES
2449
root 1.31442 16.0954 -29.3913 166.38 -10.8138 -178.515
lowerback 17.4691 10.9354 2.08642
upperback 6.35739 12.566 -9.30185
thorax 0.0264484 5.82627 -13.2982
lowerneck -4.75345 13.8143 2.84934
upperneck 5.38284 18.8855 -11.3909
head 3.75332 8.93842 -2.81061
rclavicle 1.90833e-014 -3.18055e-014
rhumerus -295.912 -60.8891 288.323
rradius 45.2596
rwrist -128.489
rhand 20.9244 -19.4176
rfingers 7.12502
rthumb 45.3952 -402.76
lclavicle 1.90833e-014 -3.18055e-014
lhumerus -72.7426 14.9947 29.2289
lradius 52.1062
lwrist 218.718
lhand -9.33275 11.5211
lfingers 7.12502
lthumb 16.6261 40.829
rfemur 29.6316 -24.3984 19.1297
rtibia 48.222
rfoot 21.4736 -30.4475
rtoes -0.469717
lfemur -27.3619 -16.9827 -14.5507
ltibia 49.9216
lfoot 0.0542563 -35.2554
ltoes -18.9679
2450
root 1.32171 16.1106 -29.4768 166.475 -12.3284 -178.63
lowerback 18.0011 11.0746 1.98334
upperback 6.8764 12.649 -9.23631
thorax 0.30778 5.85995 -13.2316
lowerneck -4.94924 13.0517 2.38358
upperneck 5.47946 17.8554 -10.5137
head 3.61639 8.45707 -2.56963
rclavicle 9.30312e-014 9.54166e-015
rhumerus -306.938 -56.485 300.021
rradius 41.2553
rwrist -125.561
rhand 6.59145 -35.8988
rfingers 7.12502
rthumb 31.8867 -423.127
lclavicle 9.30312e-014 9.54166e-015
lhumerus -74.0164 13.6438 31.8019
lradius 48.1919
lwrist 220.554
lhand -10.5145 12.7972
lfingers 7.12502
lthumb 15.4882 42.1968
rfemur 29.0671 -25.0337 18.7265
rtibia 48.8664
rfoot 21.4542 -29.925
rtoes 0.718018
lfemur -27.3806 -17.0562 -15.1073
ltibia 49.8931
lfoot 0.876871 -36.1465
ltoes -16.8609
2451
root 1.32968 16.1317 -29.5644 166.616 -13.7739 -178.762
lowerback 18.4145 11.1817 1.76904
upperback 7.33902 12.6966 -9.09042
thorax 0.531191 5.8712 -12.991
lowerneck -5.06478 12.2626 2.01629
upperneck 5.26991 16.7568 -9.54619
head 3.74347 7.97359 -2.59283
rclavicle -1.4551e-013 -5.40694e-014
rhumerus -319.159 -49.5411 313.889
rradius 39.1215
rwrist -127.724
rhand 2.01766 -41.9296
rfingers 7.12502
rthumb 27.5215 -429.938
lclavicle -1.4551e-013 -5.40694e-014
lhumerus -75.1092 12.3694 34.8677
lradius 44.1872
lwrist 221.961
lhand -11.3515 13.5113
lfingers 7.12502
lthumb 14.6818 42.9715
rfemur 28.5796 -25.6204 18.2119
rtibia 49.4335
rfoot 21.632 -28.9126
rtoes 0.980129
lfemur -27.3505 -17.3971 -15.6272
ltibia 49.7935
lfoot 1.49846 -36.6924
ltoes -15.2504
2452
root 1.33867 16.1544 -29.6526 166.787 -15.1696 -178.86
lowerback 18.7458 11.2674 1.51562
upperback 7.76138 12.7284 -8.88733
thorax 0.723296 5.87281 -12.6509
lowerneck -5.25397 11.4019 1.68424
upperneck 5.24636 15.5947 -8.88396
head 3.58952 7.42018 -2.39619
rclavicle 1.29608e-013 3.81667e-014
rhumerus -327.355 -40.5669 325.137
rradius 38.0667
rwrist -134.274
rhand -1.67879 -42.1314
rfingers 7.12502
rthumb 23.9814 -430.653
lclavicle 1.29608e-013 3.81667e-014
lhumerus -76.0044 11.0713 38.6765
lradius 40.5761
lwrist 222.521
lhand -11.5007 13.3819
lfingers 7.12502
lthumb 14.5381 42.8525
rfemur 28.1554 -26.1561 17.6806
rtibia 49.9171
rfoot 21.8778 -27.6973
rtoes 0.809942
lfemur -27.3113 -17.8877 -16.059
ltibia 49.6439
lfoot 2.14987 -37.0467
ltoes -13.3665
2453
root 1.34825 16.1792 -29.7424 167.009 -16.4919 -178.88
lowerback 18.9574 11.3643 1.31915
upperback 8.15446 12.7969 -8.69773
thorax 0.96995 5.89949 -12.3415
lowerneck -5.62006 10.4771 1.4951
upperneck 5.18589 14.3361 -8.10923
head 3.4673 6.82498 -2.17828
rclavicle 2.8625e-014 4.77083e-014
rhumerus -332.675 -29.7775 335.03
rradius 37.9736
rwrist -145.022
rhand -4.23924 -39.8037
rfingers 7.12502
rthumb 21.5242 -428.628
lclavicle 2.8625e-014 4.77083e-014
lhumerus -76.4046 9.96628 42.6699
lradius 37.0353
lwrist 221.95
lhand -11.8755 12.9478
lfingers 7.12502
lthumb 14.177 42.4441
rfemur 27.7504 -26.6492 17.2194
rtibia 50.294
rfoot 22.4246 -26.1365
rtoes -0.500779
lfemur -27.3087 -18.3349 -16.4033
ltibia 49.4903
lfoot 2.37042 -37.3652
ltoes -12.7668
2454
root 1.35807 16.2052 -29.8329 167.256 -17.7675 -178.853
lowerback 19.0999 11.4791 1.19937
upperback 8.55137 12.9021 -8.54659
thorax 1.29402 5.95085 -12.1084
lowerneck -6.0627 9.49156 1.40265
upperneck 4.90958 12.9747 -7.24495
head 3.29537 6.19113 -1.95105
rclavicle -2.38542e-013 8.26944e-014
rhumerus -335.502 -18.0605 343.6
rradius 38.8686
rwrist -157.07
rhand -6.2351 -34.8534
rfingers 7.12502
rthumb 19.6063 -423.885
lclavicle -2.38542e-013 8.26944e-014
lhumerus -76.2538 9.31671 46.0411
lradius 33.5832
lwrist 219.281
lhand -13.4798 12.9012
lfingers 7.12502
lthumb 12.6306 42.4993
rfemur 27.383 -27.1042 16.7915
rtibia 50.5651
rfoot 23.3014 -24.2169
rtoes -2.57256
lfemur -27.3359 -18.8865 -16.6671
ltibia 49.3439
lfoot 2.42387 -37.5445
ltoes -12.4285
2455
root 1.36866 16.2329 -29.9239 167.544 -19.0024 -178.796
lowerback 19.1906 11.5898 1.09474
upperback 8.90742 13.0083 -8.43109
thorax 1.61278 6.00445 -11.9185
lowerneck -6.66336 8.4538 1.29702
upperneck 4.59068 11.5323 -6.17095
head 3.13543 5.52114 -1.65039
rclavicle 8.66701e-014 -2.22639e-014
rhumerus -334.012 -12.6622 344.627
rradius 38.9854
rwrist -160.27
rhand -8.45829 -30.7257
rfingers 7.12502
rthumb 17.4678 -419.961
lclavicle 8.66701e-014 -2.22639e-014
lhumerus -75.7777 9.01935 48.7774
lradius 30.752
lwrist 215.444
lhand -16.5413 10.5059
lfingers 7.12502
lthumb 9.6779 40.2635
rfemur 27.0729 -27.5323 16.3991
rtibia 50.6447
rfoot 24.5046 -21.9455
rtoes -5.3484
lfemur -27.3707 -19.4706 -16.8537
ltibia 49.1117
lfoot 2.50315 -37.5999
ltoes -12.0483
2456
root 1.37898 16.2606 -30.0172 167.845 -20.1198 -178.706
lowerback 19.2098 11.7155 1.00508
upperback 9.22781 13.1447 -8.32948
thorax 1.94184 6.07547 -11.7455
lowerneck -7.29402 7.37581 1.1656
upperneck 4.13774 10.0237 -4.95964
head 2.94515 4.82261 -1.30636
rclavicle -7.07673e-014 1.68569e-013
rhumerus -332.596 -7.72918 345.077
rradius 39.72
rwrist -162.748
rhand -10.3859 -25.4335
rfingers 7.12502
rthumb 15.612 -414.823
lclavicle -7.07673e-014 1.68569e-013
lhumerus -75.1727 8.76515 51.4871
lradius 28.5057
lwrist 210.874
lhand -20.4362 7.49468
lfingers 7.12502
lthumb 5.91871 37.392
rfemur 26.8082 -27.8742 16.0505
rtibia 50.6214
rfoot 25.8483 -19.2513
rtoes -8.91183
lfemur -27.402 -20.0442 -16.9557
ltibia 48.8827
lfoot 2.59534 -37.5203
ltoes -11.5224
